<?xml version="1.0" encoding="UTF-8" standalone="no"?>
<svg
   id="Layer_3"
   viewBox="0 0 719.11399 719.11401"
   version="1.1"
   width="719.11401"
   height="719.11401"
   xmlns="http://www.w3.org/2000/svg"
   xmlns:svg="http://www.w3.org/2000/svg">
  <defs
     id="defs1">
    <style
       id="style1">.cls-1{fill:#231f20;}.cls-2{fill:#097798;}.cls-3{fill:#fff;}.cls-4{fill:#102a4d;}.cls-5{fill:#102b4e;}.cls-6{fill:#c6922c;}.cls-7{fill:none;}</style>
  </defs>
  <g
     id="tm"
     transform="translate(0.00100708,-0.00198364)">
    <polygon
       class="cls-1"
       points="644.795,604.81 652.626,604.81 652.626,601.351 633.03,601.351 633.03,604.81 640.791,604.81 640.791,624.65 644.795,624.65 "
       id="polygon1" />
    <polygon
       class="cls-1"
       points="655.303,624.65 658.983,624.65 658.983,604.81 665.424,624.65 669.048,624.65 675.222,605.097 675.222,624.65 678.874,624.65 678.874,601.351 673.108,601.351 667.25,619.961 661.188,601.351 655.303,601.351 "
       id="polygon2" />
  </g>
  <circle
     class="cls-2"
     cx="359.55701"
     cy="359.55701"
     r="359.55701"
     id="circle2" />
  <circle
     class="cls-3"
     cx="359.55701"
     cy="359.55701"
     r="342"
     id="circle3" />
  <ellipse
     class="cls-4"
     cx="359.55701"
     cy="360.54901"
     rx="334.04199"
     ry="334.224"
     id="ellipse3" />
  <path
     id="inner_white_circle"
     class="cls-3"
     d="m 575.35501,360.87402 c 0,-119.179 -96.622,-215.8 -215.8,-215.8 -119.178,0 -215.8,96.617 -215.8,215.8 0,119.183 96.61,215.8 215.8,215.8 119.19,0 215.8,-96.621 215.8,-215.8 z" />
  <g
     id="pillar"
     transform="translate(0.00100708,-0.00198364)">
    <path
       class="cls-5"
       d="M 297.593,418.275 285,424.192 a 2.857,2.857 0 0 0 -1.41,2.311 v 93.62 a 2.856,2.856 0 0 0 1.41,2.3 l 12.6,5.9 a 0.97,0.97 0 0 0 1.454,-0.965 V 419.24 a 0.97,0.97 0 0 0 -1.461,-0.965 z"
       transform="translate(-0.001)"
       id="path3" />
    <path
       class="cls-5"
       d="m 329.771,409.361 -12.371,2.558 a 2.1,2.1 0 0 0 -1.543,1.943 v 118.893 a 2.1,2.1 0 0 0 1.543,1.945 l 12.373,2.558 a 1.272,1.272 0 0 0 1.555,-1.3 V 410.662 a 1.278,1.278 0 0 0 -1.557,-1.301 z"
       transform="translate(-0.001)"
       id="path4" />
    <path
       class="cls-5"
       d="m 365.372,406.888 c 0,0 -2.832,-0.07 -5.066,-0.07 -2.971,0 -7.225,0.152 -7.225,0.152 a 1.668,1.668 0 0 0 -1.587,1.644 V 538 a 1.663,1.663 0 0 0 1.587,1.644 c 0,0 4.254,0.152 7.225,0.152 2.234,0 5.066,-0.082 5.066,-0.082 a 1.641,1.641 0 0 0 1.581,-1.625 V 408.513 a 1.64,1.64 0 0 0 -1.581,-1.625 z"
       transform="translate(-0.001)"
       id="path5" />
    <path
       class="cls-5"
       d="m 401.048,411.4 -12.36,-2.388 a 1.3,1.3 0 0 0 -1.562,1.321 V 536.28 a 1.3,1.3 0 0 0 1.562,1.326 l 12.36,-2.387 A 2.052,2.052 0 0 0 402.6,533.3 V 413.323 a 2.071,2.071 0 0 0 -1.552,-1.923 z"
       transform="translate(-0.001)"
       id="path6" />
    <path
       class="cls-5"
       d="m 434.1,423.364 -12.577,-5.676 a 0.988,0.988 0 0 0 -1.466,0.984 v 109.25 a 0.991,0.991 0 0 0 1.466,0.99 L 434.1,523.25 a 2.8,2.8 0 0 0 1.422,-2.286 v -95.315 a 2.8,2.8 0 0 0 -1.422,-2.285 z"
       transform="translate(-0.001)"
       id="path7" />
    <path
       class="cls-5"
       d="M 483.275,349.329 H 235.832 a 1.271,1.271 0 0 0 -1.295,1.555 l 5.136,24.518 a 2.115,2.115 0 0 0 1.949,1.543 H 477.5 a 2.117,2.117 0 0 0 1.949,-1.543 l 5.129,-24.518 a 1.272,1.272 0 0 0 -1.303,-1.555 z"
       transform="translate(-0.001)"
       id="path8" />
    <path
       class="cls-5"
       d="m 466.212,384.584 h -213.3 a 1.214,1.214 0 0 0 -1.238,1.542 l 2.127,8.9 a 2.152,2.152 0 0 0 1.974,1.536 h 207.567 a 2.153,2.153 0 0 0 1.974,-1.536 l 2.133,-8.9 a 1.211,1.211 0 0 0 -1.237,-1.542 z"
       transform="translate(-0.001)"
       id="path9" />
  </g>
  <path
     id="star"
     class="cls-6"
     d="m 433.07301,238.11902 -48.305,-4.482 a 6.293,6.293 0 0 1 -4.7,-3.41 l -19.183,-44.529 c -0.368,-0.858 -0.857,-1.276 -1.339,-1.276 -0.482,0 -0.965,0.418 -1.334,1.276 l -19.184,44.533 a 6.3,6.3 0 0 1 -4.7,3.41 l -48.293,4.482 c -1.847,0.178 -2.222,1.32 -0.825,2.545 l 36.427,32.009 a 6.287,6.287 0 0 1 1.791,5.517 l -10.647,47.334 c -0.406,1.809 0.565,2.514 2.165,1.561 l 41.7,-24.771 a 6.286,6.286 0 0 1 5.8,0 l 41.709,24.771 c 1.594,0.953 2.565,0.248 2.158,-1.561 l -10.659,-47.334 a 6.274,6.274 0 0 1 1.8,-5.517 l 36.453,-32.009 c 1.393,-1.229 1.02,-2.37 -0.834,-2.549 z" />
  <g
     id="words"
     transform="translate(0.00100708,-0.00198364)">
    <path
       class="cls-7"
       d="m 594.93,476.015 a 9.3,9.3 0 0 0 -12.97,3.777 l -9.078,16.113 16.741,9.427 9.072,-16.118 a 9.546,9.546 0 0 0 -3.765,-13.199 z"
       transform="translate(-0.001)"
       id="path10" />
    <path
       class="cls-7"
       d="m 118.874,439.245 c -3.872,-11.668 -14.721,-15.35 -26.39,-11.478 -11.669,3.872 -18.084,13.275 -14.214,24.943 3.87,11.668 14.659,15.478 26.333,11.605 11.674,-3.873 18.144,-13.401 14.271,-25.07 z"
       transform="translate(-0.001)"
       id="path11" />
    <path
       class="cls-7"
       d="m 152.829,522.235 a 9.288,9.288 0 0 0 2.146,-13.332 L 144.3,493.8 l -15.674,11.084 10.665,15.1 a 9.542,9.542 0 0 0 13.538,2.251 z"
       transform="translate(-0.001)"
       id="path12" />
    <path
       class="cls-7"
       d="m 564.094,573.219 c 8.869,-8.514 7.669,-19.89 -0.838,-28.765 -8.507,-8.875 -19.9,-10.621 -28.777,-2.108 -8.877,8.513 -7.529,19.9 0.984,28.771 8.513,8.871 19.756,10.615 28.631,2.102 z"
       transform="translate(-0.001)"
       id="path13" />
    <path
       class="cls-7"
       d="m 630.458,405.657 c -14.049,-3.269 -22.372,6.475 -25.387,19.439 l -0.781,3.365 39.582,9.218 0.787,-3.365 c 3.016,-12.97 -0.146,-25.388 -14.201,-28.657 z"
       transform="translate(-0.001)"
       id="path14" />
    <path
       class="cls-7"
       d="m 367.167,622.275 c 0.133,-5.689 -4.152,-9.548 -9.434,-9.669 l -18.486,-0.419 -0.432,19.191 18.48,0.426 a 9.545,9.545 0 0 0 9.872,-9.529 z"
       transform="translate(-0.001)"
       id="path15" />
    <path
       class="cls-7"
       d="m 240.842,584.691 -3.1,-1.517 -17.831,36.526 3.1,1.518 c 11.967,5.84 24.778,5.535 31.107,-7.435 6.329,-12.97 -1.318,-23.252 -13.276,-29.092 z"
       transform="translate(-0.001)"
       id="path16" />
    <path
       class="cls-3"
       d="m 131.705,434.992 c -6.082,-18.322 -25.7,-27.768 -44.021,-21.693 a 34.5,34.5 0 1 0 44.021,21.693 z M 78.27,452.71 c -3.866,-11.668 2.546,-21.076 14.214,-24.943 11.668,-3.867 22.518,-0.19 26.39,11.478 3.872,11.668 -2.6,21.2 -14.271,25.07 -11.671,3.87 -22.461,0.064 -26.333,-11.605 z"
       transform="translate(-0.001)"
       id="path17" />
    <path
       class="cls-3"
       d="M 128.4,567.232 138.8,536 a 21,21 0 0 0 23.057,-0.99 c 9.707,-6.863 12.361,-20.182 4.914,-30.714 l -21.222,-30.034 -55.249,39.047 8.8,12.443 19.826,-14.011 8.2,11.617 -9.626,28.442 z m 15.9,-73.432 10.672,15.1 a 9.288,9.288 0 0 1 -2.146,13.332 9.542,9.542 0 0 1 -13.535,-2.254 l -10.665,-15.1 z"
       transform="translate(-0.001)"
       id="path18" />
    <polygon
       class="cls-3"
       points="165.372,582.302 200.492,540.542 188.83,530.734 145.273,582.524 181.904,613.327 190.341,603.296 "
       id="polygon18" />
    <path
       class="cls-3"
       d="m 244.213,571.295 -14.252,-6.945 -29.672,60.818 14.245,6.952 c 23.559,11.49 45.144,6.424 53.835,-11.383 8.691,-17.807 -0.597,-37.944 -24.156,-49.442 z m 9.91,42.49 c -6.329,12.97 -19.14,13.275 -31.107,7.435 l -3.1,-1.518 17.827,-36.528 3.1,1.517 c 11.957,5.84 19.603,16.125 13.28,29.094 z"
       transform="translate(-0.001)"
       id="path19" />
    <path
       class="cls-3"
       d="m 322.76,667.2 15.23,0.343 0.552,-24.276 14.22,0.323 17.122,24.677 18.887,0.425 -18.893,-26.949 a 21,21 0 0 0 12.931,-19.115 c 0.267,-11.878 -8.849,-21.94 -21.749,-22.239 l -36.764,-0.831 z m 16.487,-55.009 18.486,0.419 c 5.282,0.121 9.567,3.98 9.434,9.669 A 9.545,9.545 0 0 1 357.3,631.8 l -18.48,-0.426 z"
       transform="translate(-0.001)"
       id="path20" />
    <polygon
       class="cls-3"
       points="419.689,633.167 451.222,625.263 448.035,612.554 416.503,620.457 413.316,607.748 446.721,599.374 443.534,586.665 395.35,598.739 411.798,664.363 459.983,652.288 456.796,639.573 423.391,647.946 "
       id="polygon20" />
    <path
       class="cls-3"
       d="m 488.758,577.455 a 50.927,50.927 0 0 1 13.478,-4.984 L 499.188,559.8 a 58.89,58.89 0 0 0 -18.734,6.786 c -19.744,10.685 -25.749,31.609 -16.563,48.578 9.186,16.969 30.212,23.388 49.778,12.8 a 57.646,57.646 0 0 0 15.566,-12 l -8.576,-9.446 a 50.876,50.876 0 0 1 -11.548,8.551 c -14.646,7.929 -25.965,3.663 -31.818,-7.149 -5.853,-10.812 -3.181,-22.536 11.465,-30.465 z"
       transform="translate(-0.001)"
       id="path21" />
    <path
       class="cls-3"
       d="M 573.445,582.97 A 34.9,34.9 0 0 0 525.128,532.6 c -13.935,13.363 -14.03,35.138 -0.667,49.067 13.363,13.929 35.056,14.672 48.984,1.303 z m -38.966,-40.624 c 8.875,-8.513 20.264,-6.767 28.777,2.108 8.513,8.875 9.707,20.251 0.838,28.765 -8.869,8.514 -20.124,6.767 -28.631,-2.1 -8.507,-8.867 -9.863,-20.26 -0.984,-28.773 z"
       transform="translate(-0.001)"
       id="path22" />
    <path
       class="cls-3"
       d="m 636.8,495.276 9.276,-16.467 -32.685,3.991 a 21,21 0 0 0 -10.779,-20.416 c -10.361,-5.828 -23.54,-2.527 -29.87,8.723 l -18.049,32.053 58.971,33.208 7.479,-13.281 -21.16,-11.922 6.977,-12.392 z m -38.1,-6.062 -9.072,16.118 -16.741,-9.427 9.078,-16.113 a 9.3,9.3 0 0 1 12.97,-3.777 9.546,9.546 0 0 1 3.765,13.199 z"
       transform="translate(-0.001)"
       id="path23" />
    <path
       class="cls-3"
       d="m 657.172,440.148 c 5.942,-25.533 -3.815,-45.435 -23.114,-49.93 -19.299,-4.495 -36.853,9.052 -42.795,34.586 l -3.593,15.439 65.909,15.344 z m -12.513,-5.834 -0.787,3.365 -39.582,-9.218 0.781,-3.365 c 3.015,-12.964 11.338,-22.708 25.387,-19.439 14.049,3.269 17.217,15.687 14.201,28.657 z"
       transform="translate(-0.001)"
       id="path24" />
    <path
       class="cls-3"
       d="m 647.319,321.036 c -12.494,0.413 -14.5,7.4 -19.611,21.9 -4.837,13.783 -5.91,18.093 -10.176,18.233 -3.961,0.133 -5.4,-3.181 -5.707,-12.723 a 90.615,90.615 0 0 1 2.012,-22.13 l -12.462,-1.93 a 97.664,97.664 0 0 0 -2.647,24.695 c 0.635,19.191 7.218,27.724 19.712,27.305 11.884,-0.387 15.49,-8.133 20.676,-23.559 4.26,-12.545 4.946,-16.43 9.11,-16.563 5.08,-0.172 7.174,4.844 7.46,13.478 0.26,7.821 -1.181,16.512 -3.644,25.126 l 11.783,2.769 a 78.7,78.7 0 0 0 4.755,-28.524 c -0.546,-16.662 -8.571,-28.496 -21.261,-28.077 z"
       transform="translate(-0.001)"
       id="path25" />
    <path
       class="cls-3"
       d="m 140.217,163.712 -8.983,-9.344 A 85.833,85.833 0 0 0 117.7,168.715 c -13.123,17.338 -11.656,38.967 4.869,51.473 15.394,11.656 36.5,9.535 50.908,-9.5 3.866,-5.1 9.452,-15.014 11.287,-20.13 l -26.164,-19.811 -8.589,11.338 17.344,13.128 a 61.169,61.169 0 0 1 -5.448,8.368 c -8.4,11.1 -20.333,11.877 -30.135,4.456 -10.939,-8.278 -12.19,-19.42 -2.127,-32.707 a 81.556,81.556 0 0 1 10.572,-11.618 z"
       transform="translate(-0.001)"
       id="path26" />
    <path
       class="cls-3"
       d="m 210.358,156.742 c -7.117,5.244 -15.769,4.285 -21.547,-3.568 l -23.419,-31.837 -12.278,9.034 23.419,31.829 c 9.276,12.608 27.083,16.4 41.894,5.51 14.811,-10.89 16.487,-29.031 7.212,-41.633 l -23.42,-31.837 -12.278,9.034 23.42,31.837 c 5.783,7.855 4.12,16.4 -3.003,21.631 z"
       transform="translate(-0.001)"
       id="path27" />
    <rect
       class="cls-3"
       x="241.502"
       y="75.955002"
       width="15.239"
       height="67.663002"
       transform="rotate(-23.816,249.12568,109.78883)"
       id="rect27" />
    <polygon
       class="cls-3"
       points="330.268,121.642 344.838,118.855 332.135,52.393 317.368,55.219 325.78,99.226 285.233,61.357 270.663,64.144 283.366,130.606 298.132,127.781 289.74,83.875 "
       id="polygon27" />
    <polygon
       class="cls-3"
       points="373.169,120.312 378.724,75.956 405.629,124.375 420.344,126.216 428.749,59.082 413.831,57.215 408.269,101.667 381.371,53.152 366.655,51.311 358.25,118.446 "
       id="polygon28" />
    <polygon
       class="cls-3"
       points="458.602,111.049 488.414,124.037 493.652,112.02 463.84,99.031 469.077,87.013 500.66,100.776 505.898,88.759 460.335,68.908 433.304,130.95 478.86,150.802 484.097,138.784 452.514,125.021 "
       id="polygon29" />
    <path
       class="cls-3"
       d="m 514.867,162.758 c -6.133,-4.857 -11.827,-11.574 -16.817,-19.027 l -9.719,7.206 A 78.685,78.685 0 0 0 507.014,173 c 13.059,10.348 27.273,11.885 35.158,1.924 7.757,-9.8 3.732,-15.833 -4.025,-29.114 -7.39,-12.589 -9.98,-16.2 -7.333,-19.54 2.464,-3.111 5.911,-2.063 13.395,3.866 a 90.05,90.05 0 0 1 15.579,15.846 l 9.529,-8.266 a 97.522,97.522 0 0 0 -17.128,-17.979 c -15.052,-11.922 -25.812,-12.411 -33.57,-2.615 -7.383,9.319 -3.809,17.077 4.609,31 6.812,11.364 9.332,14.4 6.748,17.662 -3.155,3.976 -8.342,2.338 -15.109,-3.026 z"
       transform="translate(-0.001)"
       id="path29" />
    <path
       class="cls-3"
       d="m 619.844,200 a 97.593,97.593 0 0 0 -11.878,-21.794 c -11.452,-15.414 -21.718,-18.67 -31.748,-11.217 -9.542,7.084 -8.094,15.5 -3.574,31.126 3.637,12.735 5.282,16.315 1.942,18.8 -4.082,3.034 -8.659,0.1 -13.807,-6.825 -4.66,-6.278 -8.425,-14.246 -11.313,-22.727 L 538.21,191.8 a 78.694,78.694 0 0 0 12.335,26.143 c 9.935,13.376 23.254,18.538 33.45,10.964 10.03,-7.447 7.707,-14.329 3.65,-29.158 -3.873,-14.075 -5.44,-18.227 -2.012,-20.772 3.18,-2.362 6.234,-0.458 11.928,7.205 a 90.288,90.288 0 0 1 10.945,19.337 z"
       transform="translate(-0.001)"
       id="path30" />
    <polygon
       class="cls-3"
       points="119.277,403.422 119.029,388.383 79.358,379.787 118.667,366.335 118.502,355.872 78.767,343.715 118.14,333.825 117.893,318.791 50.497,336.351 50.694,348.445 93.184,361.472 51.145,375.978 51.342,388.065 "
       id="polygon30" />
  </g>
</svg>
